<svg width="220" height="128" fill="none" xmlns="http://www.w3.org/2000/svg"><path opacity=".8" d="M57.67 30.804h-2.976v2.912h-1.008v-2.912H50.71v-.944h2.976v-2.928h1.008v2.928h2.976v.944zm9.703-6.08v.816l-4.688 10.384h-1.248l4.608-10.176h-5.76v2.096h-1.136v-3.12h8.224zm4.206 14.304c-.597-.981-1.056-2.106-1.376-3.376-.32-1.28-.48-2.65-.48-4.112 0-1.461.16-2.832.48-4.112.32-1.29.778-2.416 1.376-3.376h1.088a12.798 12.798 0 00-1.392 3.472c-.288 1.238-.432 2.576-.432 4.016s.144 2.779.432 4.016a12.798 12.798 0 001.392 3.472h-1.088zm1.777-3.104h8v.768h-8v-.768zm8 0h8v.768h-8v-.768zm8 0h8v.768h-8v-.768zm8.671 3.104a12.833 12.833 0 001.392-3.456c.299-1.237.448-2.581.448-4.032 0-1.45-.15-2.789-.448-4.016a12.798 12.798 0 00-1.392-3.472h1.088c.597.96 1.056 2.086 1.376 3.376.331 1.28.496 2.651.496 4.112 0 1.462-.16 2.832-.48 4.112-.32 1.28-.784 2.406-1.392 3.376h-1.088zm4.626-3.104h8v.768h-8v-.768zm8 0h8v.768h-8v-.768zm8 0h8v.768h-8v-.768zm8.96-4.832h4.192v.992h-4.192v-.992zm5.149 4.832h8v.768h-8v-.768zm8 0h8v.768h-8v-.768zm8.96-4.832h4.192v.992h-4.192v-.992zm5.149 4.832h8v.768h-8v-.768zm8 0h8v.768h-8v-.768z" fill="#000"/><rect x="1.5" y="1.5" width="216.893" height="47.492" rx="23.746" stroke="#E1A361" stroke-width="3"/><rect y="77" width="219.893" height="50.492" rx="25.246" fill="#E1A361"/><path d="M47.152 108.128c-1.13 0-2.149-.245-3.056-.736a5.612 5.612 0 01-2.144-2.064c-.512-.875-.768-1.851-.768-2.928s.256-2.053.768-2.928a5.5 5.5 0 012.144-2.048c.907-.501 1.926-.752 3.056-.752 1.12 0 2.134.25 3.04.752a5.386 5.386 0 012.128 2.048c.512.864.768 1.84.768 2.928 0 1.088-.256 2.069-.768 2.944a5.532 5.532 0 01-2.128 2.048c-.906.491-1.92.736-3.04.736zm0-1.424c.822 0 1.558-.187 2.208-.56a4.046 4.046 0 001.552-1.536 4.315 4.315 0 00.576-2.208c0-.811-.192-1.541-.576-2.192a4.018 4.018 0 00-1.552-1.552c-.65-.373-1.386-.56-2.208-.56-.82 0-1.568.187-2.24.56a4.133 4.133 0 00-1.568 1.552c-.373.651-.56 1.381-.56 2.192 0 .811.187 1.547.56 2.208a4.164 4.164 0 001.568 1.536c.672.373 1.42.56 2.24.56zm11.963 1.392c-.864 0-1.637-.187-2.32-.56A4.131 4.131 0 0155.21 106c-.384-.661-.576-1.408-.576-2.24 0-.832.192-1.573.576-2.224A3.993 3.993 0 0156.795 100c.683-.373 1.456-.56 2.32-.56.768 0 1.45.155 2.048.464a3.29 3.29 0 011.408 1.344l-1.168.752a2.614 2.614 0 00-.992-.912 2.825 2.825 0 00-1.312-.304c-.555 0-1.056.123-1.504.368a2.673 2.673 0 00-1.04 1.056c-.245.448-.368.965-.368 1.552 0 .597.123 1.125.368 1.584.256.448.603.795 1.04 1.04.448.245.95.368 1.504.368.48 0 .917-.101 1.312-.304.395-.203.725-.507.992-.912l1.168.736c-.33.587-.8 1.04-1.408 1.36-.597.309-1.28.464-2.048.464zm11.655-7.232h-3.104V108H66.13v-7.136h-3.104V99.52h7.744v1.344zm4.595-1.424c1.173 0 2.07.288 2.688.864.63.576.944 1.435.944 2.576V108H77.54v-1.12c-.256.395-.624.699-1.104.912-.47.203-1.03.304-1.68.304-.95 0-1.712-.229-2.288-.688-.566-.459-.848-1.061-.848-1.808 0-.747.272-1.344.816-1.792.544-.459 1.408-.688 2.592-.688h2.432v-.304c0-.661-.192-1.168-.576-1.52-.384-.352-.95-.528-1.696-.528-.501 0-.992.085-1.472.256a3.69 3.69 0 00-1.216.656l-.64-1.152c.437-.352.96-.619 1.568-.8a6.392 6.392 0 011.936-.288zm-.352 7.472c.587 0 1.093-.128 1.52-.384.427-.267.736-.64.928-1.12v-1.184h-2.368c-1.302 0-1.952.437-1.952 1.312 0 .427.165.763.496 1.008.33.245.79.368 1.376.368zm12.526-3.312c1.098.277 1.648.965 1.648 2.064 0 .747-.283 1.323-.848 1.728-.555.405-1.387.608-2.496.608h-4.08v-8.48h3.936c1.002 0 1.786.192 2.352.576.565.373.848.907.848 1.6 0 .448-.123.837-.368 1.168-.235.32-.566.565-.992.736zm-4.272-.432h2.304c.586 0 1.029-.107 1.328-.32.309-.213.464-.523.464-.928 0-.811-.598-1.216-1.792-1.216h-2.304v2.464zm2.464 3.648c.64 0 1.12-.101 1.44-.304.32-.203.48-.517.48-.944 0-.437-.15-.763-.448-.976-.288-.213-.747-.32-1.376-.32h-2.56v2.544h2.464zm5.86-7.296h1.536v6.176l5.2-6.176h1.392V108h-1.536v-6.176L92.999 108H91.59v-8.48zm17.429 1.344h-3.104V108h-1.536v-7.136h-3.104V99.52h7.744v1.344zm5.491 1.536c1.077.011 1.898.256 2.464.736.565.48.848 1.157.848 2.032 0 .917-.31 1.627-.928 2.128-.608.491-1.483.731-2.624.72l-3.68-.016v-8.48h1.536v2.864l2.384.016zm-.368 4.448c.693.011 1.216-.128 1.568-.416.362-.288.544-.715.544-1.28 0-.555-.176-.96-.528-1.216-.342-.256-.87-.389-1.584-.4l-2.016-.032v3.328l2.016.016zm14.54-3.264c.565.149 1.002.389 1.312.72.309.331.464.741.464 1.232 0 .501-.171.949-.512 1.344-.342.384-.816.688-1.424.912-.598.213-1.27.32-2.016.32-.63 0-1.248-.08-1.856-.24a5.77 5.77 0 01-1.6-.72l.464-1.168c.405.256.869.459 1.392.608a6.13 6.13 0 001.584.208c.725 0 1.301-.123 1.728-.368.437-.256.656-.597.656-1.024 0-.395-.176-.699-.528-.912-.342-.213-.827-.32-1.456-.32h-1.552v-1.104h1.44c.576 0 1.029-.101 1.36-.304.33-.203.496-.48.496-.832 0-.384-.198-.683-.592-.896-.384-.213-.907-.32-1.568-.32-.843 0-1.734.219-2.672.656l-.416-1.184a7.11 7.11 0 013.248-.784c.682 0 1.296.096 1.84.288.544.192.97.464 1.28.816.309.352.464.752.464 1.2 0 .416-.139.789-.416 1.12-.278.331-.651.581-1.12.752zm7.135-4.144c1.173 0 2.069.288 2.688.864.629.576.944 1.435.944 2.576V108h-1.456v-1.12c-.256.395-.624.699-1.104.912-.469.203-1.029.304-1.68.304-.949 0-1.712-.229-2.288-.688-.565-.459-.848-1.061-.848-1.808 0-.747.272-1.344.816-1.792.544-.459 1.408-.688 2.592-.688h2.432v-.304c0-.661-.192-1.168-.576-1.52-.384-.352-.949-.528-1.696-.528-.501 0-.992.085-1.472.256a3.69 3.69 0 00-1.216.656l-.64-1.152c.437-.352.96-.619 1.568-.8a6.39 6.39 0 011.936-.288zm-.352 7.472c.587 0 1.093-.128 1.52-.384.427-.267.736-.64.928-1.12v-1.184h-2.368c-1.301 0-1.952.437-1.952 1.312 0 .427.165.763.496 1.008.331.245.789.368 1.376.368zm13.55-7.392V108h-1.376v-2.688H145L143.144 108h-1.648l2.064-2.896c-.64-.192-1.131-.507-1.472-.944-.342-.448-.512-1.003-.512-1.664 0-.971.33-1.707.992-2.208.661-.512 1.573-.768 2.736-.768h3.712zm-5.872 3.024c0 .565.176.987.528 1.264.362.267.901.4 1.616.4h2.352v-3.344h-2.288c-1.472 0-2.208.56-2.208 1.68zm14.645 1.056c1.098.277 1.648.965 1.648 2.064 0 .747-.283 1.323-.848 1.728-.555.405-1.387.608-2.496.608h-4.08v-8.48h3.936c1.002 0 1.786.192 2.352.576.565.373.848.907.848 1.6 0 .448-.123.837-.368 1.168-.235.32-.566.565-.992.736zm-4.272-.432h2.304c.586 0 1.029-.107 1.328-.32.309-.213.464-.523.464-.928 0-.811-.598-1.216-1.792-1.216h-2.304v2.464zm2.464 3.648c.64 0 1.12-.101 1.44-.304.32-.203.48-.517.48-.944 0-.437-.15-.763-.448-.976-.288-.213-.747-.32-1.376-.32h-2.56v2.544h2.464zm9.156-2.4h-1.76V108h-1.536v-8.48h1.536v3.584h1.792l2.752-3.584h1.648l-3.216 4.08 3.44 4.4h-1.808l-2.848-3.584zm13.35-4.896l-4.112 9.328c-.363.864-.789 1.472-1.28 1.824-.48.352-1.061.528-1.744.528-.416 0-.821-.069-1.216-.208a2.41 2.41 0 01-.96-.576l.656-1.152c.437.416.944.624 1.52.624.373 0 .683-.101.928-.304.256-.192.485-.528.688-1.008l.272-.592-3.744-8.464h1.6l2.96 6.784 2.928-6.784h1.504z" fill="#fff"/></svg>