<svg width="220" height="128" viewBox="0 0 220 128" fill="none" xmlns="http://www.w3.org/2000/svg">
<path opacity="0.8" d="M57.6701 30.8043H54.6941V33.7163H53.6861V30.8043H50.7101V29.8603H53.6861V26.9323H54.6941V29.8603H57.6701V30.8043ZM67.373 24.7243V25.5403L62.685 35.9243H61.437L66.045 25.7483H60.285V27.8443H59.149V24.7243H67.373ZM71.5788 39.0283C70.9815 38.047 70.5228 36.9216 70.2028 35.6523C69.8828 34.3723 69.7228 33.0016 69.7228 31.5403C69.7228 30.079 69.8828 28.7083 70.2028 27.4283C70.5228 26.1376 70.9815 25.0123 71.5788 24.0523H72.6668C72.0375 25.1296 71.5735 26.287 71.2748 27.5243C70.9868 28.7616 70.8428 30.1003 70.8428 31.5403C70.8428 32.9803 70.9868 34.319 71.2748 35.5563C71.5735 36.7936 72.0375 37.951 72.6668 39.0283H71.5788ZM73.3557 35.9243H81.3557V36.6923H73.3557V35.9243ZM81.3557 35.9243H89.3557V36.6923H81.3557V35.9243ZM89.3557 35.9243H97.3557V36.6923H89.3557V35.9243ZM98.027 39.0283C98.6563 37.951 99.1203 36.799 99.419 35.5723C99.7176 34.335 99.867 32.991 99.867 31.5403C99.867 30.0896 99.7176 28.751 99.419 27.5243C99.1203 26.287 98.6563 25.1296 98.027 24.0523H99.115C99.7123 25.0123 100.171 26.1376 100.491 27.4283C100.822 28.7083 100.987 30.079 100.987 31.5403C100.987 33.0016 100.827 34.3723 100.507 35.6523C100.187 36.9323 99.723 38.0576 99.115 39.0283H98.027ZM102.653 35.9243H110.653V36.6923H102.653V35.9243ZM110.653 35.9243H118.653V36.6923H110.653V35.9243ZM118.653 35.9243H126.653V36.6923H118.653V35.9243ZM127.613 31.0923H131.805V32.0843H127.613V31.0923ZM132.762 35.9243H140.762V36.6923H132.762V35.9243ZM140.762 35.9243H148.762V36.6923H140.762V35.9243ZM149.722 31.0923H153.914V32.0843H149.722V31.0923ZM154.871 35.9243H162.871V36.6923H154.871V35.9243ZM162.871 35.9243H170.871V36.6923H162.871V35.9243Z" fill="black"/>
<rect x="1.5" y="1.5" width="216.893" height="47.4925" rx="23.7463" stroke="#E1A361" stroke-width="3"/>
<rect y="77" width="219.893" height="50.4925" rx="25.2463" fill="#E1A361"/>
<path d="M47.1524 108.128C46.0218 108.128 45.0031 107.883 44.0964 107.392C43.1898 106.891 42.4751 106.203 41.9524 105.328C41.4404 104.453 41.1844 103.477 41.1844 102.4C41.1844 101.323 41.4404 100.347 41.9524 99.472C42.4751 98.5973 43.1898 97.9147 44.0964 97.424C45.0031 96.9227 46.0218 96.672 47.1524 96.672C48.2724 96.672 49.2858 96.9227 50.1924 97.424C51.0991 97.9147 51.8084 98.5973 52.3204 99.472C52.8324 100.336 53.0884 101.312 53.0884 102.4C53.0884 103.488 52.8324 104.469 52.3204 105.344C51.8084 106.208 51.0991 106.891 50.1924 107.392C49.2858 107.883 48.2724 108.128 47.1524 108.128ZM47.1524 106.704C47.9738 106.704 48.7098 106.517 49.3604 106.144C50.0218 105.771 50.5391 105.259 50.9124 104.608C51.2964 103.947 51.4884 103.211 51.4884 102.4C51.4884 101.589 51.2964 100.859 50.9124 100.208C50.5391 99.5467 50.0218 99.0293 49.3604 98.656C48.7098 98.2827 47.9738 98.096 47.1524 98.096C46.3311 98.096 45.5844 98.2827 44.9124 98.656C44.2511 99.0293 43.7284 99.5467 43.3444 100.208C42.9711 100.859 42.7844 101.589 42.7844 102.4C42.7844 103.211 42.9711 103.947 43.3444 104.608C43.7284 105.259 44.2511 105.771 44.9124 106.144C45.5844 106.517 46.3311 106.704 47.1524 106.704ZM59.1149 108.096C58.2509 108.096 57.4776 107.909 56.7949 107.536C56.1229 107.163 55.5949 106.651 55.2109 106C54.8269 105.339 54.6349 104.592 54.6349 103.76C54.6349 102.928 54.8269 102.187 55.2109 101.536C55.5949 100.875 56.1229 100.363 56.7949 100C57.4776 99.6267 58.2509 99.44 59.1149 99.44C59.8829 99.44 60.5656 99.5947 61.1629 99.904C61.7709 100.213 62.2403 100.661 62.5709 101.248L61.4029 102C61.1363 101.595 60.8056 101.291 60.4109 101.088C60.0163 100.885 59.5789 100.784 59.0989 100.784C58.5443 100.784 58.0429 100.907 57.5949 101.152C57.1576 101.397 56.8109 101.749 56.5549 102.208C56.3096 102.656 56.1869 103.173 56.1869 103.76C56.1869 104.357 56.3096 104.885 56.5549 105.344C56.8109 105.792 57.1576 106.139 57.5949 106.384C58.0429 106.629 58.5443 106.752 59.0989 106.752C59.5789 106.752 60.0163 106.651 60.4109 106.448C60.8056 106.245 61.1363 105.941 61.4029 105.536L62.5709 106.272C62.2403 106.859 61.7709 107.312 61.1629 107.632C60.5656 107.941 59.8829 108.096 59.1149 108.096ZM70.7702 100.864H67.6662V108H66.1302V100.864H63.0262V99.52H70.7702V100.864ZM75.3648 99.44C76.5381 99.44 77.4341 99.728 78.0528 100.304C78.6821 100.88 78.9968 101.739 78.9968 102.88V108H77.5408V106.88C77.2848 107.275 76.9168 107.579 76.4368 107.792C75.9675 107.995 75.4075 108.096 74.7568 108.096C73.8075 108.096 73.0448 107.867 72.4688 107.408C71.9035 106.949 71.6208 106.347 71.6208 105.6C71.6208 104.853 71.8928 104.256 72.4368 103.808C72.9808 103.349 73.8448 103.12 75.0288 103.12H77.4608V102.816C77.4608 102.155 77.2688 101.648 76.8848 101.296C76.5008 100.944 75.9355 100.768 75.1888 100.768C74.6875 100.768 74.1968 100.853 73.7168 101.024C73.2368 101.184 72.8315 101.403 72.5008 101.68L71.8608 100.528C72.2981 100.176 72.8208 99.9093 73.4288 99.728C74.0368 99.536 74.6821 99.44 75.3648 99.44ZM75.0128 106.912C75.5995 106.912 76.1061 106.784 76.5328 106.528C76.9595 106.261 77.2688 105.888 77.4608 105.408V104.224H75.0928C73.7915 104.224 73.1408 104.661 73.1408 105.536C73.1408 105.963 73.3061 106.299 73.6368 106.544C73.9675 106.789 74.4261 106.912 75.0128 106.912ZM87.5387 103.6C88.6374 103.877 89.1867 104.565 89.1867 105.664C89.1867 106.411 88.904 106.987 88.3387 107.392C87.784 107.797 86.952 108 85.8427 108H81.7627V99.52H85.6987C86.7014 99.52 87.4854 99.712 88.0507 100.096C88.616 100.469 88.8987 101.003 88.8987 101.696C88.8987 102.144 88.776 102.533 88.5307 102.864C88.296 103.184 87.9654 103.429 87.5387 103.6ZM83.2667 103.168H85.5707C86.1574 103.168 86.6 103.061 86.8987 102.848C87.208 102.635 87.3627 102.325 87.3627 101.92C87.3627 101.109 86.7654 100.704 85.5707 100.704H83.2667V103.168ZM85.7307 106.816C86.3707 106.816 86.8507 106.715 87.1707 106.512C87.4907 106.309 87.6507 105.995 87.6507 105.568C87.6507 105.131 87.5014 104.805 87.2027 104.592C86.9147 104.379 86.456 104.272 85.8267 104.272H83.2667V106.816H85.7307ZM91.5908 99.52H93.1268V105.696L98.3268 99.52H99.7188V108H98.1828V101.824L92.9988 108H91.5908V99.52ZM109.02 100.864H105.916V108H104.38V100.864H101.276V99.52H109.02V100.864ZM114.511 102.4C115.588 102.411 116.409 102.656 116.975 103.136C117.54 103.616 117.823 104.293 117.823 105.168C117.823 106.085 117.513 106.795 116.895 107.296C116.287 107.787 115.412 108.027 114.271 108.016L110.591 108V99.52H112.127V102.384L114.511 102.4ZM114.143 106.848C114.836 106.859 115.359 106.72 115.711 106.432C116.073 106.144 116.255 105.717 116.255 105.152C116.255 104.597 116.079 104.192 115.727 103.936C115.385 103.68 114.857 103.547 114.143 103.536L112.127 103.504V106.832L114.143 106.848ZM128.683 103.584C129.248 103.733 129.685 103.973 129.995 104.304C130.304 104.635 130.459 105.045 130.459 105.536C130.459 106.037 130.288 106.485 129.947 106.88C129.605 107.264 129.131 107.568 128.523 107.792C127.925 108.005 127.253 108.112 126.507 108.112C125.877 108.112 125.259 108.032 124.651 107.872C124.053 107.701 123.52 107.461 123.051 107.152L123.515 105.984C123.92 106.24 124.384 106.443 124.907 106.592C125.429 106.731 125.957 106.8 126.491 106.8C127.216 106.8 127.792 106.677 128.219 106.432C128.656 106.176 128.875 105.835 128.875 105.408C128.875 105.013 128.699 104.709 128.347 104.496C128.005 104.283 127.52 104.176 126.891 104.176H125.339V103.072H126.779C127.355 103.072 127.808 102.971 128.139 102.768C128.469 102.565 128.635 102.288 128.635 101.936C128.635 101.552 128.437 101.253 128.043 101.04C127.659 100.827 127.136 100.72 126.475 100.72C125.632 100.72 124.741 100.939 123.803 101.376L123.387 100.192C124.421 99.6693 125.504 99.408 126.635 99.408C127.317 99.408 127.931 99.504 128.475 99.696C129.019 99.888 129.445 100.16 129.755 100.512C130.064 100.864 130.219 101.264 130.219 101.712C130.219 102.128 130.08 102.501 129.803 102.832C129.525 103.163 129.152 103.413 128.683 103.584ZM135.818 99.44C136.991 99.44 137.887 99.728 138.506 100.304C139.135 100.88 139.45 101.739 139.45 102.88V108H137.994V106.88C137.738 107.275 137.37 107.579 136.89 107.792C136.421 107.995 135.861 108.096 135.21 108.096C134.261 108.096 133.498 107.867 132.922 107.408C132.357 106.949 132.074 106.347 132.074 105.6C132.074 104.853 132.346 104.256 132.89 103.808C133.434 103.349 134.298 103.12 135.482 103.12H137.914V102.816C137.914 102.155 137.722 101.648 137.338 101.296C136.954 100.944 136.389 100.768 135.642 100.768C135.141 100.768 134.65 100.853 134.17 101.024C133.69 101.184 133.285 101.403 132.954 101.68L132.314 100.528C132.751 100.176 133.274 99.9093 133.882 99.728C134.49 99.536 135.135 99.44 135.818 99.44ZM135.466 106.912C136.053 106.912 136.559 106.784 136.986 106.528C137.413 106.261 137.722 105.888 137.914 105.408V104.224H135.546C134.245 104.224 133.594 104.661 133.594 105.536C133.594 105.963 133.759 106.299 134.09 106.544C134.421 106.789 134.879 106.912 135.466 106.912ZM149.016 99.52V108H147.64V105.312H145.176H145L143.144 108H141.496L143.56 105.104C142.92 104.912 142.429 104.597 142.088 104.16C141.746 103.712 141.576 103.157 141.576 102.496C141.576 101.525 141.906 100.789 142.568 100.288C143.229 99.776 144.141 99.52 145.304 99.52H149.016ZM143.144 102.544C143.144 103.109 143.32 103.531 143.672 103.808C144.034 104.075 144.573 104.208 145.288 104.208H147.64V100.864H145.352C143.88 100.864 143.144 101.424 143.144 102.544ZM157.789 103.6C158.887 103.877 159.437 104.565 159.437 105.664C159.437 106.411 159.154 106.987 158.589 107.392C158.034 107.797 157.202 108 156.093 108H152.013V99.52H155.949C156.951 99.52 157.735 99.712 158.301 100.096C158.866 100.469 159.149 101.003 159.149 101.696C159.149 102.144 159.026 102.533 158.781 102.864C158.546 103.184 158.215 103.429 157.789 103.6ZM153.517 103.168H155.821C156.407 103.168 156.85 103.061 157.149 102.848C157.458 102.635 157.613 102.325 157.613 101.92C157.613 101.109 157.015 100.704 155.821 100.704H153.517V103.168ZM155.981 106.816C156.621 106.816 157.101 106.715 157.421 106.512C157.741 106.309 157.901 105.995 157.901 105.568C157.901 105.131 157.751 104.805 157.453 104.592C157.165 104.379 156.706 104.272 156.077 104.272H153.517V106.816H155.981ZM165.137 104.416H163.377V108H161.841V99.52H163.377V103.104H165.169L167.921 99.52H169.569L166.353 103.6L169.793 108H167.985L165.137 104.416ZM178.487 99.52L174.375 108.848C174.012 109.712 173.586 110.32 173.095 110.672C172.615 111.024 172.034 111.2 171.351 111.2C170.935 111.2 170.53 111.131 170.135 110.992C169.751 110.864 169.431 110.672 169.175 110.416L169.831 109.264C170.268 109.68 170.775 109.888 171.351 109.888C171.724 109.888 172.034 109.787 172.279 109.584C172.535 109.392 172.764 109.056 172.967 108.576L173.239 107.984L169.495 99.52H171.095L174.055 106.304L176.983 99.52H178.487Z" fill="white"/>
</svg>
